<?xml version="1.0" encoding="UTF-8"?>
<svg xmlns="http://www.w3.org/2000/svg" width="179.2" height="179.2" viewBox="0 -80 65 100">
  <path transform="scale(0.1,-0.1)" d="M284 700c258 0 302 -211 302 -415c0 -252 -27 -376 -147 -376c-84 0 -119 94 -118 143h-4c-19 -47 -57 -98 -137 -98c-109 0 -150 97 -150 229c0 175 72 258 196 258c46 0 85 -7 141 -37v-296c0 -107 31 -131 70 -131c63 0 62 135 62 307c0 191 -31 342 -214 342 c-66 0 -143 -17 -227 -92l-49 57c90 77 186 109 275 109zM229 379c-91 0 -118 -66 -118 -196c0 -97 19 -166 79 -166c70 0 91 60 103 88v260c-21 10 -40 14 -64 14z" />
</svg>
    