<svg xmlns="http://www.w3.org/2000/svg" width="130" height="140" viewBox="0 0 130 140">
  <path fill="#FFF" d="M64.7,0.2 L7.7,0.2 C3.4,0.2 -5.68434189e-14,3.7 -5.68434189e-14,7.9 L-5.68434189e-14,61 C-5.68434189e-14,91.6 25.2,123.6 58.3,138.2 C62.4,140 67.1,139.9 71.3,138.1 C84.8,132.1 97,123.2 106.7,112.7 L67,112.7 L63.6,112.7 C49.5,112.7 37.4,107.8 27.8,98 C18.1,88.2 13.2,76.2 13.2,61.9 C13.2,47.7 18.1,35.5 27.8,25.6 C37.6,15.6 49.5,10.5 63.6,10.5 C91.5,9.8 116.7,32.2 116.3,59.8 C116.3,67.3 114.7,74.9 111.4,81.9 C108.1,88.9 101.7,93.7 93.8,93.7 C84,93.7 76.6,88.4 76.6,76.2 L76.6,61.4 C76.6,57.4 75.2,54 72.4,51.4 C69.7,48.7 66.3,47.3 62.5,47.3 C58.6,47.3 55.3,48.7 52.5,51.4 C49.8,54.1 48.4,57.5 48.4,61.4 C48.4,65.3 49.8,68.5 52.5,71.2 C55.3,73.9 58.7,75.3 62.5,75.3 C66,75.3 69.4,74 72.5,71.4 L72.5,82 C69.1,83.9 65.8,84.8 62.5,84.8 C56,84.8 50.4,82.6 45.7,78 C41.1,73.4 38.8,67.8 38.8,61.3 C38.8,54.6 41.1,49 45.7,44.5 C50.4,39.9 56,37.6 62.5,37.6 C68.8,37.6 74.3,39.7 79,44 C83.7,48.3 86.1,53.7 86.4,60.1 L86.4,76.8 C86.4,81.6 88.9,84 93.9,84 C98.9,84 102.5,80.4 104.3,75.2 C106.1,69.9 106.6,64.9 106.6,59.7 C106.6,48.4 102.4,39 94,31.4 C85.6,23.8 75.5,20.1 63.8,20.1 C52.4,20.1 42.7,24.2 34.8,32.2 C27,40.3 23,50.2 23,61.7 C23,73.3 27,83 34.8,90.9 C42.6,98.8 52.3,102.8 63.8,102.8 L67.2,102.8 L114.8,102.8 C124.1,89.8 129.6,75.1 129.6,60.8 L129.6,7.7 C129.6,3.4 126.1,-2.84217094e-14 121.9,-2.84217094e-14 L64.7,-2.84217094e-14 L64.7,0.2 Z"/>
</svg>
