<?xml version="1.0" encoding="utf-8"?>
<!-- Generator: Adobe Illustrator 22.1.0, SVG Export Plug-In . SVG Version: 6.00 Build 0)  -->
<svg version="1.1" id="Layer_1" xmlns="http://www.w3.org/2000/svg" xmlns:xlink="http://www.w3.org/1999/xlink" x="0px" y="0px"
	 viewBox="0 0 1440 1080" style="enable-background:new 0 0 1440 1080;" xml:space="preserve">
<style type="text/css">
	.st0{fill:#1400FF;}
	.st1{fill:#FFFFFF;}
</style>
<rect class="st0" width="1440" height="1080"/>
<g>
	<g>
		<path class="st1" d="M543.8,541c0-3.3-1.2-6.2-3.5-8.4c-2.3-2.3-5.1-3.4-8.3-3.4c-3.2,0-6.1,1.2-8.4,3.4c-2.3,2.3-3.4,5.1-3.4,8.4
			c0,3.2,1.2,6,3.4,8.2c2.3,2.3,5.2,3.4,8.4,3.4c2.9,0,5.8-1.1,8.4-3.2v8.9c-2.8,1.6-5.6,2.4-8.4,2.4c-5.5,0-10.2-1.9-14.1-5.7
			c-3.8-3.8-5.8-8.5-5.8-14c0-5.6,2-10.3,5.8-14.1c3.9-3.8,8.6-5.8,14.1-5.8c5.3,0,9.9,1.8,13.8,5.4s6,8.1,6.2,13.5v14
			c0,4,2.1,6.1,6.3,6.1s7.2-3,8.7-7.3c1.5-4.4,2-8.6,2-13c0-9.5-3.5-17.3-10.6-23.7c-7.1-6.4-15.5-9.5-25.4-9.5
			c-9.6,0-17.7,3.4-24.3,10.2c-6.6,6.8-9.9,15.1-9.9,24.8c0,9.7,3.3,17.8,9.9,24.5c6.6,6.7,14.7,10,24.3,10h2.8v8.1h-2.8
			c-11.8,0-21.9-4.1-30.1-12.3c-8.1-8.2-12.2-18.3-12.2-30.3c0-11.9,4.1-22.1,12.2-30.5c8.2-8.4,18.2-12.6,30.1-12.6
			c23.4-0.6,44.6,18.2,44.2,41.3c0,6.3-1.4,12.6-4.1,18.5c-2.7,5.9-8.1,9.9-14.8,9.9c-8.2,0-14.4-4.4-14.4-14.7V541z"/>
		<path class="st1" d="M622.1,566.5v-5.9c-2.7,4.3-9.1,6.8-14.2,6.8c-6.3,0-11.8-2.2-16.4-6.6c-4.6-4.4-7-10.2-7-17.2
			s2.3-12.7,6.9-17.1c4.6-4.4,10.1-6.7,16.5-6.7c5.1,0,11.2,2.1,14.2,6.7v-5.7h11.9v45.7H622.1z M618.3,534.6
			c-2.4-2.3-5.4-3.3-8.7-3.3c-3.4,0-6.4,1.2-8.9,3.5c-2.4,2.3-3.7,5.2-3.7,8.8c0,3.6,1.3,6.6,3.7,8.9c7.2,7.2,21.9,2.4,21.4-8.9
			C622.1,539.8,620.9,536.8,618.3,534.6z"/>
		<path class="st1" d="M677.2,520.8h11.9v45.7h-11.9V560c-2.4,4.7-7.8,7.4-12.6,7.4c-11.1,0-18-7.1-18-19.7v-27h12v24.9
			c0,7,3.9,10.2,8.7,10.2c5.6,0,9.9-3.3,9.9-10.7V520.8z"/>
		<path class="st1" d="M717.8,503.3v17.4h9.7v9.6h-9.7v36.1H706v-36.1h-8.3v-9.6h8.3v-17.4H717.8z"/>
		<path class="st1" d="M748,566.5H736v-70.6H748v31.9c1-2.5,2.9-4.5,5.8-5.9c2.9-1.5,5.8-2.2,8.4-2.2c11.8,0,18.4,7.8,18.4,21.3
			v25.5h-11.9v-24.9c0-6.3-4.5-10.2-9.7-10.2c-5.9,0-11,3.3-11,10.7V566.5z"/>
		<path class="st1" d="M836.9,547.6H802c0.8,6,5.9,9.8,12.6,9.8c4.8,0,9.4-2.1,11.5-5.9l9.1,4.9c-3.9,7.4-12.2,11.1-21.3,11.1
			c-6.7,0-12.2-2.3-16.8-6.7c-4.6-4.5-6.9-10.3-6.9-17.3c0-7.1,2.3-12.7,6.9-17.1c4.6-4.4,10.2-6.6,16.8-6.6
			c6.7,0,12.1,2.2,16.5,6.6c4.4,4.4,6.7,10.1,6.7,17.1C837.1,544.8,837,546.1,836.9,547.6z M825.4,539.5c-0.9-6.2-5.5-9.7-11.5-9.7
			c-6.4,0-11.2,3.7-12,9.7H825.4z"/>
		<path class="st1" d="M858.6,566.5h-11.9v-45.7h11.9v6.8c2.4-4.7,8.1-7.7,13.6-7.7c10.9,0,17,6.9,17,19.7v27h-11.9v-24.9
			c0-6.6-3.3-10.2-8.7-10.2c-5.9,0-10,3.2-10,10.7V566.5z"/>
		<path class="st1" d="M917.4,503.3v17.4h9.7v9.6h-9.7v36.1h-11.8v-36.1h-8.3v-9.6h8.3v-17.4H917.4z"/>
		<path class="st1" d="M933.9,503c0-4,3.5-7.1,7.7-7.1s7.5,3.1,7.5,7.1s-3.3,7.2-7.5,7.2C937.3,510.3,933.9,507,933.9,503z
			 M947.5,520.8v45.7h-11.8v-45.7H947.5z"/>
		<path class="st1" d="M1001.2,528.7l-9.5,7.1c-2.3-3-5.4-4.5-9.5-4.5c-3.4,0-6.5,1.2-9,3.4c-2.5,2.3-3.8,5.1-3.8,8.7
			c0,3.6,1.3,6.6,3.8,9c2.5,2.4,5.6,3.5,9,3.5c4.1,0,7.2-1.6,9.5-4.6l9.6,7.1c-4.3,5.8-11.4,9-19.1,9c-6.8,0-12.6-2.3-17.4-6.8
			c-4.8-4.5-7.2-10.3-7.2-17.2c0-7,2.4-12.6,7.2-17c4.8-4.4,10.7-6.7,17.4-6.7C990,519.8,996.9,523.1,1001.2,528.7z"/>
		<path class="st1" d="M1044.9,566.5v-5.9c-2.7,4.3-9.1,6.8-14.2,6.8c-6.3,0-11.8-2.2-16.4-6.6c-4.6-4.4-7-10.2-7-17.2
			s2.3-12.7,6.9-17.1c4.6-4.4,10.1-6.7,16.5-6.7c5.1,0,11.2,2.1,14.2,6.7v-5.7h11.9v45.7H1044.9z M1041.1,534.6
			c-2.4-2.3-5.4-3.3-8.7-3.3c-3.4,0-6.4,1.2-8.9,3.5c-2.4,2.3-3.7,5.2-3.7,8.8c0,3.6,1.3,6.6,3.7,8.9c7.2,7.2,21.9,2.4,21.4-8.9
			C1044.9,539.8,1043.6,536.8,1041.1,534.6z"/>
		<path class="st1" d="M1085.6,503.3v17.4h9.7v9.6h-9.7v36.1h-11.8v-36.1h-8.3v-9.6h8.3v-17.4H1085.6z"/>
		<path class="st1" d="M1102,503c0-4,3.5-7.1,7.7-7.1s7.5,3.1,7.5,7.1s-3.3,7.2-7.5,7.2C1105.4,510.3,1102,507,1102,503z
			 M1115.6,520.8v45.7h-11.8v-45.7H1115.6z"/>
		<path class="st1" d="M1149.6,567.4c-6.7,0-12.3-2.3-16.9-6.7c-4.6-4.4-6.9-10.2-6.9-17.2c0-7.1,2.3-12.7,6.9-17.1
			c4.6-4.4,10.3-6.6,16.9-6.6c6.7,0,12.2,2.2,16.8,6.6c4.6,4.4,7,10.1,7,17.1c0,7.1-2.3,12.8-7,17.2
			C1161.8,565.1,1156.3,567.4,1149.6,567.4z M1149.6,531.5c-6.8,0-11.9,4.9-11.9,11.9c0,7.3,5.2,12.2,11.9,12.2
			c6.8,0,11.9-4.9,11.9-12.2C1161.5,536.4,1156.4,531.5,1149.6,531.5z"/>
		<path class="st1" d="M1195.5,566.5h-11.9v-45.7h11.9v6.8c2.4-4.7,8.1-7.7,13.6-7.7c10.9,0,17,6.9,17,19.7v27h-11.9v-24.9
			c0-6.6-3.3-10.2-8.7-10.2c-5.9,0-10,3.2-10,10.7V566.5z"/>
	</g>
	<path class="st1" d="M278.5,470.4h-57c-4.3,0-7.7,3.5-7.7,7.7v53.1c0,30.6,25.2,62.6,58.3,77.2c4.1,1.8,8.8,1.7,13-0.1
		c13.5-6,25.7-14.9,35.4-25.4h-39.7h-3.4c-14.1,0-26.2-4.9-35.8-14.7c-9.7-9.8-14.6-21.8-14.6-36.1c0-14.2,4.9-26.4,14.6-36.3
		c9.8-10,21.7-15.1,35.8-15.1c27.9-0.7,53.1,21.7,52.7,49.3c0,7.5-1.6,15.1-4.9,22.1c-3.3,7-9.7,11.8-17.6,11.8
		c-9.8,0-17.2-5.3-17.2-17.5v-14.8c0-4-1.4-7.4-4.2-10c-2.7-2.7-6.1-4.1-9.9-4.1c-3.9,0-7.2,1.4-10,4.1c-2.7,2.7-4.1,6.1-4.1,10
		c0,3.9,1.4,7.1,4.1,9.8c2.8,2.7,6.2,4.1,10,4.1c3.5,0,6.9-1.3,10-3.9v10.6c-3.4,1.9-6.7,2.8-10,2.8c-6.5,0-12.1-2.2-16.8-6.8
		c-4.6-4.6-6.9-10.2-6.9-16.7c0-6.7,2.3-12.3,6.9-16.8c4.7-4.6,10.3-6.9,16.8-6.9c6.3,0,11.8,2.1,16.5,6.4c4.7,4.3,7.1,9.7,7.4,16.1
		V547c0,4.8,2.5,7.2,7.5,7.2c5,0,8.6-3.6,10.4-8.8c1.8-5.3,2.3-10.3,2.3-15.5c0-11.3-4.2-20.7-12.6-28.3
		c-8.4-7.6-18.5-11.3-30.2-11.3c-11.4,0-21.1,4.1-29,12.1c-7.8,8.1-11.8,18-11.8,29.5c0,11.6,4,21.3,11.8,29.2
		c7.8,7.9,17.5,11.9,29,11.9h3.4h47.6c9.3-13,14.8-27.7,14.8-42v-53.1c0-4.3-3.5-7.7-7.7-7.7H278.5z"/>
	<rect x="416.1" y="442.8" class="st1" width="1.5" height="194.5"/>
</g>
</svg>
