<?xml version="1.0" encoding="utf-8"?>
<!-- Generator: Adobe Illustrator 22.1.0, SVG Export Plug-In . SVG Version: 6.00 Build 0)  -->
<svg version="1.1" id="Layer_1" xmlns="http://www.w3.org/2000/svg" xmlns:xlink="http://www.w3.org/1999/xlink" x="0px" y="0px"
	 viewBox="0 0 1440 1080" style="enable-background:new 0 0 1440 1080;" xml:space="preserve">
<style type="text/css">
	.st0{fill:#1400FF;}
	.st1{fill:#FFFFFF;}
</style>
<rect class="st1" width="1440" height="1080"/>
<g>
	<g>
		<path class="st0" d="M493.5,559v-5.9c-2.7,4.3-9.1,6.8-14.2,6.8c-6.3,0-11.8-2.2-16.4-6.6c-4.6-4.4-7-10.2-7-17.2
			c0-7.1,2.3-12.7,6.9-17.1c4.6-4.4,10.1-6.7,16.5-6.7c5.1,0,11.2,2.1,14.2,6.7v-5.7h11.9V559H493.5z M489.7,527.1
			c-2.4-2.3-5.4-3.3-8.7-3.3c-3.4,0-6.4,1.2-8.9,3.5c-2.4,2.3-3.7,5.2-3.7,8.8c0,3.6,1.3,6.6,3.7,8.9c7.2,7.2,21.9,2.4,21.4-8.9
			C493.5,532.3,492.2,529.3,489.7,527.1z"/>
		<path class="st0" d="M548.5,513.3h11.9V559h-11.9v-6.5c-2.4,4.7-7.8,7.4-12.6,7.4c-11.1,0-18-7.1-18-19.7v-27h12v24.9
			c0,7,3.9,10.2,8.7,10.2c5.6,0,9.9-3.3,9.9-10.7V513.3z"/>
		<path class="st0" d="M589.2,495.8v17.4h9.7v9.6h-9.7V559h-11.8v-36.1H569v-9.6h8.3v-17.4H589.2z"/>
		<path class="st0" d="M619.3,559h-11.9v-70.6h11.9v31.9c1-2.5,2.9-4.5,5.8-5.9c2.9-1.5,5.8-2.2,8.4-2.2c11.8,0,18.4,7.8,18.4,21.3
			V559H640v-24.9c0-6.3-4.5-10.2-9.7-10.2c-5.9,0-11,3.3-11,10.7V559z"/>
		<path class="st0" d="M708.2,540.1h-34.9c0.8,6,5.9,9.8,12.6,9.8c4.8,0,9.4-2.1,11.5-5.9l9.1,4.9c-3.9,7.4-12.2,11.1-21.3,11.1
			c-6.7,0-12.2-2.3-16.8-6.7c-4.6-4.5-6.9-10.3-6.9-17.3c0-7.1,2.3-12.7,6.9-17.1c4.6-4.4,10.2-6.6,16.8-6.6
			c6.7,0,12.1,2.2,16.5,6.6c4.4,4.4,6.7,10.1,6.7,17.1C708.4,537.3,708.3,538.6,708.2,540.1z M696.8,532c-0.9-6.2-5.5-9.7-11.5-9.7
			c-6.4,0-11.2,3.7-12,9.7H696.8z"/>
		<path class="st0" d="M730,559H718v-45.7H730v6.8c2.4-4.7,8.1-7.7,13.6-7.7c10.9,0,17,6.9,17,19.7v27h-11.9v-24.9
			c0-6.6-3.3-10.2-8.7-10.2c-5.9,0-10,3.2-10,10.7V559z"/>
		<path class="st0" d="M788.7,495.8v17.4h9.7v9.6h-9.7V559h-11.8v-36.1h-8.3v-9.6h8.3v-17.4H788.7z"/>
		<path class="st0" d="M805.2,495.5c0-4,3.5-7.1,7.7-7.1s7.5,3.1,7.5,7.1s-3.3,7.2-7.5,7.2C808.6,502.8,805.2,499.6,805.2,495.5z
			 M818.8,513.3V559H807v-45.7H818.8z"/>
		<path class="st0" d="M872.6,521.2l-9.5,7.1c-2.3-3-5.4-4.5-9.5-4.5c-3.4,0-6.5,1.2-9,3.4c-2.5,2.3-3.8,5.1-3.8,8.7
			c0,3.6,1.3,6.6,3.8,9c2.5,2.4,5.6,3.5,9,3.5c4.1,0,7.2-1.6,9.5-4.6l9.6,7.1c-4.3,5.8-11.4,9-19.1,9c-6.8,0-12.6-2.3-17.4-6.8
			c-4.8-4.5-7.2-10.3-7.2-17.2c0-7,2.4-12.6,7.2-17c4.8-4.4,10.7-6.7,17.4-6.7C861.3,512.3,868.3,515.6,872.6,521.2z"/>
		<path class="st0" d="M916.2,559v-5.9c-2.7,4.3-9.1,6.8-14.2,6.8c-6.3,0-11.8-2.2-16.4-6.6c-4.6-4.4-7-10.2-7-17.2
			c0-7.1,2.3-12.7,6.9-17.1c4.6-4.4,10.1-6.7,16.5-6.7c5.1,0,11.2,2.1,14.2,6.7v-5.7h11.9V559H916.2z M912.4,527.1
			c-2.4-2.3-5.4-3.3-8.7-3.3c-3.4,0-6.4,1.2-8.9,3.5c-2.4,2.3-3.7,5.2-3.7,8.8c0,3.6,1.3,6.6,3.7,8.9c7.2,7.2,21.9,2.4,21.4-8.9
			C916.2,532.3,915,529.3,912.4,527.1z"/>
		<path class="st0" d="M956.9,495.8v17.4h9.7v9.6h-9.7V559H945v-36.1h-8.3v-9.6h8.3v-17.4H956.9z"/>
		<path class="st0" d="M973.3,495.5c0-4,3.5-7.1,7.7-7.1c4.2,0,7.5,3.1,7.5,7.1s-3.3,7.2-7.5,7.2
			C976.8,502.8,973.3,499.6,973.3,495.5z M987,513.3V559h-11.8v-45.7H987z"/>
		<path class="st0" d="M1020.9,559.9c-6.7,0-12.3-2.3-16.9-6.7c-4.6-4.4-6.9-10.2-6.9-17.2c0-7.1,2.3-12.7,6.9-17.1
			c4.6-4.4,10.3-6.6,16.9-6.6c6.7,0,12.2,2.2,16.8,6.6c4.6,4.4,7,10.1,7,17.1c0,7.1-2.3,12.8-7,17.2
			C1033.2,557.6,1027.6,559.9,1020.9,559.9z M1020.9,524c-6.8,0-11.9,4.9-11.9,11.9c0,7.3,5.2,12.2,11.9,12.2
			c6.8,0,11.9-4.9,11.9-12.2C1032.9,528.9,1027.7,524,1020.9,524z"/>
		<path class="st0" d="M1066.9,559h-11.9v-45.7h11.9v6.8c2.4-4.7,8.1-7.7,13.6-7.7c10.9,0,17,6.9,17,19.7v27h-11.9v-24.9
			c0-6.6-3.3-10.2-8.7-10.2c-5.9,0-10,3.2-10,10.7V559z"/>
		<path class="st0" d="M393.2,485.4h-44.7c-3.3,0-6,2.7-6,6v41.6c0,24,19.7,49.1,45.7,60.5c3.2,1.4,6.9,1.4,10.2-0.1
			c10.6-4.7,20.1-11.6,27.7-19.9H395h-2.7c-11.1,0-20.5-3.8-28.1-11.5c-7.6-7.7-11.4-17.1-11.4-28.3c0-11.2,3.8-20.7,11.4-28.5
			c7.7-7.9,17-11.8,28.1-11.8c21.9-0.5,41.6,17,41.3,38.6c0,5.9-1.3,11.8-3.8,17.3c-2.6,5.5-7.6,9.2-13.8,9.2
			c-7.7,0-13.5-4.1-13.5-13.7v-11.6c0-3.1-1.1-5.8-3.3-7.9c-2.1-2.1-4.8-3.2-7.8-3.2s-5.7,1.1-7.9,3.2c-2.1,2.1-3.2,4.8-3.2,7.9
			c0,3,1.1,5.6,3.2,7.7c2.2,2.1,4.9,3.2,7.9,3.2c2.7,0,5.4-1,7.9-3v8.3c-2.7,1.5-5.2,2.2-7.9,2.2c-5.1,0-9.5-1.7-13.2-5.3
			c-3.6-3.6-5.4-8-5.4-13.1c0-5.2,1.8-9.6,5.4-13.2c3.7-3.6,8.1-5.4,13.2-5.4c4.9,0,9.2,1.6,12.9,5s5.6,7.6,5.8,12.6v13.1
			c0,3.8,1.9,5.7,5.9,5.7s6.8-2.8,8.1-6.9c1.4-4.1,1.8-8.1,1.8-12.2c0-8.9-3.3-16.2-9.9-22.1c-6.6-5.9-14.5-8.9-23.7-8.9
			c-9,0-16.6,3.2-22.7,9.5c-6.1,6.3-9.2,14.1-9.2,23.2c0,9.1,3.1,16.7,9.2,22.9c6.1,6.2,13.7,9.3,22.7,9.3h2.7h37.3
			c7.3-10.2,11.6-21.7,11.6-32.9v-41.6c0-3.3-2.7-6-6-6H393.2z"/>
	</g>
</g>
</svg>
